<?xml version="1.0" standalone="no"?>
<!DOCTYPE svg PUBLIC "-//W3C//DTD SVG 20010904//EN"
 "http://www.w3.org/TR/2001/REC-SVG-20010904/DTD/svg10.dtd">
<svg version="1.0" xmlns="http://www.w3.org/2000/svg"
 width="1198.000000pt" height="1198.000000pt" viewBox="0 0 1198.000000 1198.000000"
 preserveAspectRatio="xMidYMid meet">
<metadata>
Created by potrace 1.11, written by Peter Selinger 2001-2013
</metadata>
<g transform="translate(0.000000,1198.000000) scale(0.100000,-0.100000)"
fill="#000000" stroke="none">
<path d="M5661 10419 c-431 -16 -786 -30 -788 -33 -4 -4 18 -639 23 -645 1 -2
119 1 261 6 142 5 261 7 264 4 4 -3 21 -436 39 -961 18 -525 34 -957 36 -959
4 -4 767 20 772 24 2 2 -11 435 -30 962 l-33 958 30 6 c16 4 136 10 265 14
129 3 235 7 236 8 2 2 -23 641 -25 645 -3 6 -330 -3 -1050 -29z"/>
<path d="M7166 9004 c-238 -691 -415 -1219 -410 -1224 9 -8 706 -250 721 -250
13 0 846 2431 837 2439 -9 8 -708 251 -722 251 -4 0 -196 -547 -426 -1216z"/>
<path d="M3600 9934 c-189 -85 -345 -156 -347 -158 -4 -4 1036 -2339 1047
-2350 8 -8 680 283 703 304 11 10 -1034 2360 -1048 2359 -5 -1 -165 -70 -355
-155z"/>
<path d="M9440 8944 c-80 -10 -200 -38 -265 -61 -104 -37 -273 -126 -372 -196
-118 -82 -379 -345 -466 -467 -120 -170 -208 -361 -242 -530 -22 -106 -22
-298 -1 -396 104 -486 566 -820 1056 -765 301 34 578 178 864 452 237 227 404
484 471 729 38 136 45 336 17 470 -75 363 -356 654 -714 740 -81 20 -276 33
-348 24z m262 -750 c95 -61 116 -158 60 -275 -46 -96 -120 -189 -266 -334
-256 -255 -443 -364 -559 -326 -38 13 -112 86 -127 127 -25 65 -1 149 76 266
61 93 343 377 444 447 183 128 283 154 372 95z"/>
<path d="M2090 8724 c-81 -17 -167 -47 -245 -87 -164 -82 -243 -154 -588 -536
l-309 -343 33 -33 c30 -29 1830 -1648 1871 -1682 14 -13 46 18 304 304 319
354 357 399 414 495 97 163 134 299 134 498 -1 198 -29 318 -119 505 -208 432
-676 806 -1103 880 -105 18 -305 18 -392 -1z m198 -720 c141 -47 282 -144 455
-313 179 -174 255 -294 265 -416 4 -56 1 -71 -26 -127 -17 -35 -40 -74 -51
-88 l-20 -25 -38 36 c-21 20 -225 204 -453 409 -228 205 -428 385 -443 400
l-29 27 39 38 c89 86 172 103 301 59z"/>
<path d="M5735 7663 c-981 -88 -1862 -640 -2371 -1484 -231 -383 -380 -831
-423 -1273 -14 -138 -14 -482 -1 -617 119 -1201 945 -2232 2094 -2614 307
-102 552 -144 891 -152 532 -13 985 87 1449 319 309 155 541 323 792 573 194
193 265 279 402 485 258 387 423 824 487 1291 22 161 30 485 16 649 -55 640
-288 1215 -691 1709 -515 630 -1268 1031 -2084 1110 -101 10 -467 13 -561 4z
m649 -963 l46 -19 0 -1698 c0 -997 4 -1732 10 -1780 10 -92 32 -143 82 -189
67 -64 145 -84 325 -84 l113 0 0 -120 0 -120 -945 0 -945 0 0 119 0 119 158 5
c196 6 245 19 312 87 91 90 84 -24 88 1455 1 812 -1 1333 -7 1388 -24 216
-100 251 -371 171 -69 -20 -134 -39 -146 -41 -23 -5 -21 -16 -40 175 l-6 57
189 58 c352 109 752 265 990 386 54 28 99 50 100 50 1 1 22 -8 47 -19z"/>
<path d="M10330 6380 c-925 -196 -1256 -270 -1258 -281 -3 -16 143 -708 151
-716 3 -3 211 39 462 92 251 53 458 95 460 93 2 -2 -183 -147 -411 -323 l-415
-320 6 -35 c3 -19 34 -165 68 -325 49 -228 66 -290 78 -289 35 2 2495 527
2502 534 7 6 -137 717 -147 727 -2 2 -196 -37 -431 -87 -235 -50 -429 -89
-431 -87 -3 3 748 587 773 601 3 2 -142 675 -147 679 -3 2 -570 -116 -1260
-263z"/>
<path d="M245 6237 c-10 -32 -246 -1559 -243 -1569 3 -8 435 -81 1274 -214
698 -111 1270 -201 1271 -200 4 3 255 1617 252 1619 -2 2 -146 26 -319 53
-279 45 -316 49 -322 35 -4 -9 -35 -196 -69 -416 -34 -220 -65 -404 -69 -408
-8 -9 -290 31 -311 43 -8 5 7 116 49 381 33 206 58 375 57 377 -5 5 -636 104
-640 100 -2 -2 -31 -171 -63 -376 -33 -206 -62 -375 -64 -377 -2 -2 -66 6
-143 18 -127 20 -140 24 -138 42 2 11 30 195 64 409 33 213 59 389 57 391 -2
1 -138 24 -303 49 -165 26 -308 48 -318 50 -10 3 -20 -1 -22 -7z"/>
</g>
</svg>
